<svg width="0" height="0" class="hidden">

  <symbol xmlns="http://www.w3.org/2000/svg" viewBox="0 0 480 480" id="downarrow">
    <path d="M240 0C107.452 0 0 107.452 0 240s107.452 240 240 240c132.486-.15 239.85-107.514 240-240C480 107.452 372.548 0 240 0zm0 464C116.288 464 16 363.712 16 240S116.288 16 240 16c123.653.141 223.859 100.347 224 224 0 123.712-100.288 224-224 224z"></path>
    <path d="M370.112 170.576L240 300.688 109.888 170.576a8 8 0 0 0-11.312 11.312l135.768 135.768a8 8 0 0 0 11.312 0l135.768-135.768a8 8 0 1 0-11.312-11.312z"></path>
  </symbol>
  
  <symbol xmlns="http://www.w3.org/2000/svg" viewBox="0 0 10 5.718" id="arrow-down">
    <path d="M5.001 3.995L8.782.211a.712.712 0 011.009 0 .721.721 0 010 1.012L5.512 5.51a.713.713 0 01-.985.021L.212 1.226A.715.715 0 011.221.214z"></path>
  </symbol>

  <symbol xmlns="http://www.w3.org/2000/svg" viewBox="0 0 23.136 24.422" id="location-city">
    <path d="M15.424 11.569v-7.71L11.568 0 7.712 3.859V6.43H0v17.992h23.136V11.569h-7.712zM5.141 21.851H2.573v-2.57h2.571zm0-5.141H2.573v-2.571h2.571zm0-5.141H2.573V8.998h2.571zm7.712 10.282h-2.57v-2.57h2.57zm0-5.141h-2.57v-2.571h2.57zm0-5.141h-2.57V8.998h2.57zm0-5.141h-2.57V3.859h2.57zm7.712 15.424h-2.57v-2.571h2.571v2.571zm0-5.141h-2.57v-2.572h2.571z" fill="#3061b8"></path>
  </symbol>
  
  </svg>